{
	"meshes":[{
		"name":"Cylinder.1",
		"primitives":[{
			"attributes":{
				"POSITION":1,
				"NORMAL":2,
				"TEXCOORD_0":3
			},
			"indices":0
		}]
	}],
	"asset":{
		"version":"2.0",
		"generator":"Created using the official Cinema 4D glTF Exporter 1.000x284978"
	},
	"scenes":[{
		"nodes":[0]
	}],
	"nodes":[{
		"name":"Cylinder.1",
		"translation":[2.535318007334013e-17,
		-0.49087604880332949,
		-0.06542361527681351],
		"rotation":[0.0,
		0.0,
		0.0,
		-1.0],
		"scale":[1.0,
		1.0,
		1.0],
		"mesh":0
	}],
	"accessors":[{
		"bufferView":0,
		"type":"SCALAR",
		"count":8004,
		"componentType":5123,
		"byteOffset":0,
		"min":[0],
		"max":[1761]
	},
	{
		"bufferView":1,
		"type":"VEC3",
		"count":1762,
		"componentType":5126,
		"byteOffset":0,
		"min":[-21.32846450805664,
		-0.04621217027306557,
		-46.8087043762207],
		"max":[21.32846450805664,
		49.026588439941409,
		49.46657943725586]
	},
	{
		"bufferView":1,
		"type":"VEC3",
		"count":1762,
		"componentType":5126,
		"byteOffset":12,
		"min":[-1.0,
		-1.0,
		-1.0],
		"max":[1.0,
		1.0,
		1.0]
	},
	{
		"bufferView":1,
		"type":"VEC2",
		"count":1762,
		"componentType":5126,
		"byteOffset":24,
		"min":[0.0,
		0.0],
		"max":[1.0,
		1.0]
	}],
	"bufferViews":[{
		"buffer":0,
		"byteOffset":0,
		"byteLength":16008,
		"target":34963
	},
	{
		"buffer":0,
		"byteOffset":16008,
		"byteLength":56384,
		"byteStride":32,
		"target":34962
	}],
	"buffers":[{
		"uri":"data:application/octet-stream;base64,",
		"byteLength":72392
	}]
}