{
	"materials":[{
		"pbrMetallicRoughness":{
			"baseColorFactor":[0.07058823853731156,
			0.07058823853731156,
			0.07058823853731156,
			0.5],
			"metallicFactor":1.0,
			"roughnessFactor":1.0
		},
		"emissiveFactor":[0.0,
		0.0,
		0.0],
		"name":"Glass Light",
		"alphaMode":"BLEND",
		"doubleSided":false
	},
	{
		"pbrMetallicRoughness":{
			"baseColorFactor":[0.011764707043766976,
			0.011764707043766976,
			0.011764707043766976,
			0.8999999761581421],
			"metallicFactor":1.0,
			"roughnessFactor":1.0
		},
		"emissiveFactor":[0.0,
		0.0,
		0.0],
		"name":"Glass",
		"alphaMode":"BLEND",
		"doubleSided":false
	},
	{
		"pbrMetallicRoughness":{
			"baseColorTexture":{
				"index":0
			},
			"baseColorFactor":[1.0,
			1.0,
			1.0,
			1.0],
			"metallicFactor":0.0,
			"roughnessFactor":0.6400000013112346
		},
		"emissiveFactor":[0.0,
		0.0,
		0.0],
		"name":"Textures 1",
		"alphaMode":"OPAQUE",
		"doubleSided":false
	},
	{
		"pbrMetallicRoughness":{
			"baseColorTexture":{
				"index":1
			},
			"baseColorFactor":[0.5879999995231628,
			0.5879999995231628,
			0.5879999995231628,
			1.0],
			"metallicFactor":1.0,
			"roughnessFactor":1.0
		},
		"emissiveFactor":[0.0,
		0.0,
		0.0],
		"name":"Textures 2",
		"alphaMode":"OPAQUE",
		"doubleSided":false
	},
	{
		"pbrMetallicRoughness":{
			"baseColorTexture":{
				"index":2
			},
			"baseColorFactor":[0.5879999995231628,
			0.5879999995231628,
			0.5879999995231628,
			1.0],
			"metallicFactor":0.0,
			"roughnessFactor":0.41000003717993085
		},
		"emissiveFactor":[0.0,
		0.0,
		0.0],
		"name":"Textures Wheel",
		"alphaMode":"OPAQUE",
		"doubleSided":false
	}],
	"asset":{
		"version":"2.0",
		"generator":"Created using the official Cinema 4D glTF Exporter 1.000x284978"
	},
	"scenes":[{
		"nodes":[0]
	}],
	"nodes":[{
		"name":"Body",
		"translation":[45.5023078918457,
		-0.7773885726928711,
		-18.948183059692384],
		"rotation":[-0.0070381672121584419,
		0.7324809432029724,
		0.680537223815918,
		0.0170647781342268],
		"scale":[1.1786061525344849,
		1.1928337812423707,
		1.1414204835891724],
		"children":[1,
		2,
		3,
		4,
		5,
		6,
		7,
		8]
	},
	{
		"name":"Body-Glass Light",
		"translation":[0.0,
		0.0,
		0.0],
		"rotation":[0.0,
		0.0,
		0.0,
		-1.0],
		"scale":[1.0,
		1.0,
		1.0],
		"mesh":0
	},
	{
		"name":"Body-Glass",
		"mesh":1
	},
	{
		"name":"Body-Textures 1",
		"mesh":2
	},
	{
		"name":"Body-Textures 2",
		"mesh":3
	},
	{
		"name":"Wheel_FL",
		"translation":[15.844155311584473,
		54.73863983154297,
		6.063901424407959],
		"rotation":[0.4851292669773102,
		-0.5066443681716919,
		-0.47558534145355227,
		0.5308292508125305],
		"scale":[0.7843863368034363,
		0.8193149566650391,
		0.7936480045318604],
		"mesh":4
	},
	{
		"name":"Wheel_BL",
		"translation":[18.358470916748048,
		-16.871137619018556,
		11.556594848632813],
		"rotation":[0.4851292669773102,
		-0.5066443681716919,
		-0.47558534145355227,
		0.5308292508125305],
		"scale":[0.7843863368034363,
		0.8193149566650391,
		0.7936480045318604],
		"mesh":5
	},
	{
		"name":"Wheel_BR",
		"translation":[60.35194778442383,
		-15.478577613830567,
		10.8875093460083],
		"rotation":[0.47558504343032839,
		0.530829668045044,
		0.48512956500053408,
		0.5066438913345337],
		"scale":[0.7843933701515198,
		0.819319486618042,
		0.7936508059501648],
		"mesh":6
	},
	{
		"name":"Wheel_FR",
		"translation":[57.8376350402832,
		56.131202697753909,
		5.394817352294922],
		"rotation":[0.47558504343032839,
		0.530829668045044,
		0.48512956500053408,
		0.5066438913345337],
		"scale":[0.7843933701515198,
		0.819319486618042,
		0.7936508059501648],
		"mesh":7
	}],
	"meshes":[{
		"name":"Body-Glass Light",
		"primitives":[{
			"attributes":{
				"POSITION":3,
				"NORMAL":4,
				"TEXCOORD_0":5
			},
			"indices":2,
			"material":0
		}]
	},
	{
		"name":"Body-Glass",
		"primitives":[{
			"attributes":{
				"POSITION":9,
				"NORMAL":10,
				"TEXCOORD_0":11
			},
			"indices":8,
			"material":1
		}]
	},
	{
		"name":"Body-Textures 1",
		"primitives":[{
			"attributes":{
				"POSITION":13,
				"NORMAL":14,
				"TEXCOORD_0":15
			},
			"indices":12,
			"material":2
		}]
	},
	{
		"name":"Body-Textures 2",
		"primitives":[{
			"attributes":{
				"POSITION":17,
				"NORMAL":18,
				"TEXCOORD_0":19
			},
			"indices":16,
			"material":3
		}]
	},
	{
		"name":"Wheel_FL",
		"primitives":[{
			"attributes":{
				"POSITION":21,
				"NORMAL":22,
				"TEXCOORD_0":23
			},
			"indices":20,
			"material":4
		}]
	},
	{
		"name":"Wheel_BL",
		"primitives":[{
			"attributes":{
				"POSITION":27,
				"NORMAL":28,
				"TEXCOORD_0":29
			},
			"indices":26,
			"material":4
		}]
	},
	{
		"name":"Wheel_BR",
		"primitives":[{
			"attributes":{
				"POSITION":33,
				"NORMAL":34,
				"TEXCOORD_0":35
			},
			"indices":32,
			"material":4
		}]
	},
	{
		"name":"Wheel_FR",
		"primitives":[{
			"attributes":{
				"POSITION":39,
				"NORMAL":40,
				"TEXCOORD_0":41
			},
			"indices":38,
			"material":4
		}]
	}],
	"accessors":[{
		"bufferView":0,
		"type":"SCALAR",
		"byteOffset":0,
		"componentType":5126,
		"count":2,
		"min":[0.0],
		"max":[3.0]
	},
	{
		"bufferView":0,
		"type":"VEC4",
		"byteOffset":8,
		"componentType":5126,
		"count":2,
		"min":[0.0070381672121584419,
		-0.7324809432029724,
		-0.680537223815918,
		-0.0170647781342268],
		"max":[0.0070381672121584419,
		-0.7324809432029724,
		-0.680537223815918,
		-0.0170647781342268]
	},
	{
		"bufferView":1,
		"type":"SCALAR",
		"byteOffset":0,
		"componentType":5123,
		"count":504,
		"min":[0],
		"max":[125]
	},
	{
		"bufferView":2,
		"type":"VEC3",
		"byteOffset":0,
		"componentType":5126,
		"count":126,
		"min":[14.99826717376709,
		-36.74403381347656,
		15.555733680725098],
		"max":[62.018646240234378,
		75.6626968383789,
		32.09423828125]
	},
	{
		"bufferView":2,
		"type":"VEC3",
		"byteOffset":12,
		"componentType":5126,
		"count":126,
		"min":[-0.9441875219345093,
		-0.963843822479248,
		-0.06053125113248825],
		"max":[0.9603437781333923,
		0.9282500147819519,
		0.6425312757492065]
	},
	{
		"bufferView":2,
		"type":"VEC2",
		"byteOffset":24,
		"componentType":5126,
		"count":126,
		"min":[0.008631989359855652,
		0.00689774751663208],
		"max":[0.7799882888793945,
		0.5998197793960571]
	},
	{
		"bufferView":3,
		"type":"SCALAR",
		"byteOffset":0,
		"componentType":5126,
		"count":2,
		"min":[0.0],
		"max":[3.0]
	},
	{
		"bufferView":3,
		"type":"VEC4",
		"byteOffset":8,
		"componentType":5126,
		"count":2,
		"min":[0.0070381672121584419,
		-0.7324809432029724,
		-0.680537223815918,
		-0.0170647781342268],
		"max":[0.0070381672121584419,
		-0.7324809432029724,
		-0.680537223815918,
		-0.0170647781342268]
	},
	{
		"bufferView":4,
		"type":"SCALAR",
		"byteOffset":0,
		"componentType":5123,
		"count":765,
		"min":[0],
		"max":[233]
	},
	{
		"bufferView":5,
		"type":"VEC3",
		"byteOffset":0,
		"componentType":5126,
		"count":234,
		"min":[17.2152099609375,
		-34.143348693847659,
		26.75377655029297],
		"max":[59.243446350097659,
		48.19645690917969,
		41.0153923034668]
	},
	{
		"bufferView":5,
		"type":"VEC3",
		"byteOffset":12,
		"componentType":5126,
		"count":234,
		"min":[-0.9410000443458557,
		-0.7979062795639038,
		0.30900001525878909],
		"max":[0.948468804359436,
		0.554031252861023,
		0.8885625600814819]
	},
	{
		"bufferView":5,
		"type":"VEC2",
		"byteOffset":24,
		"componentType":5126,
		"count":234,
		"min":[0.2816457152366638,
		0.01811593770980835],
		"max":[0.9890124797821045,
		0.6040345430374146]
	},
	{
		"bufferView":6,
		"type":"SCALAR",
		"byteOffset":0,
		"componentType":5123,
		"count":21096,
		"min":[0],
		"max":[9742]
	},
	{
		"bufferView":7,
		"type":"VEC3",
		"byteOffset":0,
		"componentType":5126,
		"count":9743,
		"min":[11.672255516052246,
		-40.135406494140628,
		2.891289234161377],
		"max":[64.14729309082031,
		78.12834167480469,
		44.866981506347659]
	},
	{
		"bufferView":7,
		"type":"VEC3",
		"byteOffset":12,
		"componentType":5126,
		"count":9743,
		"min":[-0.9999688267707825,
		-0.9998750686645508,
		-0.9998750686645508],
		"max":[0.9999688267707825,
		0.9995625615119934,
		0.9998750686645508]
	},
	{
		"bufferView":7,
		"type":"VEC2",
		"byteOffset":24,
		"componentType":5126,
		"count":9743,
		"min":[0.002966929692775011,
		-0.9951294660568237],
		"max":[0.99749755859375,
		-0.004616975784301758]
	},
	{
		"bufferView":8,
		"type":"SCALAR",
		"byteOffset":0,
		"componentType":5123,
		"count":38901,
		"min":[0],
		"max":[13853]
	},
	{
		"bufferView":9,
		"type":"VEC3",
		"byteOffset":0,
		"componentType":5126,
		"count":13854,
		"min":[16.99390411376953,
		-34.1433219909668,
		7.673309326171875],
		"max":[59.652095794677737,
		51.66359329223633,
		43.076148986816409]
	},
	{
		"bufferView":9,
		"type":"VEC3",
		"byteOffset":12,
		"componentType":5126,
		"count":13854,
		"min":[-0.9999063014984131,
		-0.9999063014984131,
		-0.9999688267707825],
		"max":[0.9998437762260437,
		0.9998750686645508,
		0.9998750686645508]
	},
	{
		"bufferView":9,
		"type":"VEC2",
		"byteOffset":24,
		"componentType":5126,
		"count":13854,
		"min":[0.007897727191448212,
		-0.9879204034805298],
		"max":[0.9940685033798218,
		-0.025359392166137697]
	},
	{
		"bufferView":10,
		"type":"SCALAR",
		"byteOffset":0,
		"componentType":5123,
		"count":2418,
		"min":[0],
		"max":[845]
	},
	{
		"bufferView":11,
		"type":"VEC3",
		"byteOffset":0,
		"componentType":5126,
		"count":846,
		"min":[-12.117144584655762,
		-11.933055877685547,
		-6.241905689239502],
		"max":[12.117144584655762,
		11.93305492401123,
		3.4605226516723635]
	},
	{
		"bufferView":11,
		"type":"VEC3",
		"byteOffset":12,
		"componentType":5126,
		"count":846,
		"min":[-0.9999753832817078,
		-1.0,
		-1.0],
		"max":[0.9999753832817078,
		1.0,
		1.0]
	},
	{
		"bufferView":11,
		"type":"VEC2",
		"byteOffset":24,
		"componentType":5126,
		"count":846,
		"min":[0.0038045356050133707,
		-0.992165744304657],
		"max":[0.9912678003311157,
		-0.006155490875244141]
	},
	{
		"bufferView":12,
		"type":"SCALAR",
		"byteOffset":0,
		"componentType":5126,
		"count":2,
		"min":[0.0],
		"max":[3.0]
	},
	{
		"bufferView":12,
		"type":"VEC4",
		"byteOffset":8,
		"componentType":5126,
		"count":2,
		"min":[-0.4851292669773102,
		0.5066443681716919,
		0.47558534145355227,
		-0.5308292508125305],
		"max":[-0.4851292669773102,
		0.5066443681716919,
		0.47558534145355227,
		-0.5308292508125305]
	},
	{
		"bufferView":13,
		"type":"SCALAR",
		"byteOffset":0,
		"componentType":5123,
		"count":2418,
		"min":[0],
		"max":[845]
	},
	{
		"bufferView":14,
		"type":"VEC3",
		"byteOffset":0,
		"componentType":5126,
		"count":846,
		"min":[-12.117144584655762,
		-11.933055877685547,
		-6.241905689239502],
		"max":[12.117144584655762,
		11.93305492401123,
		3.4605226516723635]
	},
	{
		"bufferView":14,
		"type":"VEC3",
		"byteOffset":12,
		"componentType":5126,
		"count":846,
		"min":[-0.9999753832817078,
		-1.0,
		-1.0],
		"max":[0.9999753832817078,
		1.0,
		1.0]
	},
	{
		"bufferView":14,
		"type":"VEC2",
		"byteOffset":24,
		"componentType":5126,
		"count":846,
		"min":[0.0038045356050133707,
		-0.992165744304657],
		"max":[0.9912678003311157,
		-0.006155490875244141]
	},
	{
		"bufferView":15,
		"type":"SCALAR",
		"byteOffset":0,
		"componentType":5126,
		"count":2,
		"min":[0.0],
		"max":[3.0]
	},
	{
		"bufferView":15,
		"type":"VEC4",
		"byteOffset":8,
		"componentType":5126,
		"count":2,
		"min":[-0.4851292669773102,
		0.5066443681716919,
		0.47558534145355227,
		-0.5308292508125305],
		"max":[-0.4851292669773102,
		0.5066443681716919,
		0.47558534145355227,
		-0.5308292508125305]
	},
	{
		"bufferView":16,
		"type":"SCALAR",
		"byteOffset":0,
		"componentType":5123,
		"count":2418,
		"min":[0],
		"max":[845]
	},
	{
		"bufferView":17,
		"type":"VEC3",
		"byteOffset":0,
		"componentType":5126,
		"count":846,
		"min":[-12.117144584655762,
		-11.933055877685547,
		-6.241905689239502],
		"max":[12.117144584655762,
		11.93305492401123,
		3.4605226516723635]
	},
	{
		"bufferView":17,
		"type":"VEC3",
		"byteOffset":12,
		"componentType":5126,
		"count":846,
		"min":[-0.9999753832817078,
		-1.0,
		-1.0],
		"max":[0.9999753832817078,
		1.0,
		1.0]
	},
	{
		"bufferView":17,
		"type":"VEC2",
		"byteOffset":24,
		"componentType":5126,
		"count":846,
		"min":[0.0038045356050133707,
		-0.992165744304657],
		"max":[0.9912678003311157,
		-0.006155490875244141]
	},
	{
		"bufferView":18,
		"type":"SCALAR",
		"byteOffset":0,
		"componentType":5126,
		"count":2,
		"min":[0.0],
		"max":[3.0]
	},
	{
		"bufferView":18,
		"type":"VEC4",
		"byteOffset":8,
		"componentType":5126,
		"count":2,
		"min":[-0.47558504343032839,
		-0.530829668045044,
		-0.48512956500053408,
		-0.5066438913345337],
		"max":[-0.47558504343032839,
		-0.530829668045044,
		-0.48512956500053408,
		-0.5066438913345337]
	},
	{
		"bufferView":19,
		"type":"SCALAR",
		"byteOffset":0,
		"componentType":5123,
		"count":2418,
		"min":[0],
		"max":[845]
	},
	{
		"bufferView":20,
		"type":"VEC3",
		"byteOffset":0,
		"componentType":5126,
		"count":846,
		"min":[-12.117144584655762,
		-11.933055877685547,
		-6.241905689239502],
		"max":[12.117144584655762,
		11.93305492401123,
		3.4605226516723635]
	},
	{
		"bufferView":20,
		"type":"VEC3",
		"byteOffset":12,
		"componentType":5126,
		"count":846,
		"min":[-0.9999753832817078,
		-1.0,
		-1.0],
		"max":[0.9999753832817078,
		1.0,
		1.0]
	},
	{
		"bufferView":20,
		"type":"VEC2",
		"byteOffset":24,
		"componentType":5126,
		"count":846,
		"min":[0.0038045356050133707,
		-0.992165744304657],
		"max":[0.9912678003311157,
		-0.006155490875244141]
	},
	{
		"bufferView":21,
		"type":"SCALAR",
		"byteOffset":0,
		"componentType":5126,
		"count":2,
		"min":[0.0],
		"max":[3.0]
	},
	{
		"bufferView":21,
		"type":"VEC4",
		"byteOffset":8,
		"componentType":5126,
		"count":2,
		"min":[-0.47558504343032839,
		-0.530829668045044,
		-0.48512956500053408,
		-0.5066438913345337],
		"max":[-0.47558504343032839,
		-0.530829668045044,
		-0.48512956500053408,
		-0.5066438913345337]
	}],
	"bufferViews":[{
		"buffer":0,
		"byteOffset":0,
		"byteLength":40
	},
	{
		"buffer":1,
		"byteOffset":0,
		"byteLength":1008,
		"target":34963
	},
	{
		"buffer":1,
		"byteOffset":1008,
		"byteLength":4032,
		"target":34962,
		"byteStride":32
	},
	{
		"buffer":2,
		"byteOffset":0,
		"byteLength":40
	},
	{
		"buffer":3,
		"byteOffset":0,
		"byteLength":1530,
		"target":34963
	},
	{
		"buffer":3,
		"byteOffset":1532,
		"byteLength":7488,
		"target":34962,
		"byteStride":32
	},
	{
		"buffer":4,
		"byteOffset":0,
		"byteLength":42192,
		"target":34963
	},
	{
		"buffer":4,
		"byteOffset":42192,
		"byteLength":311776,
		"target":34962,
		"byteStride":32
	},
	{
		"buffer":5,
		"byteOffset":0,
		"byteLength":77802,
		"target":34963
	},
	{
		"buffer":5,
		"byteOffset":77804,
		"byteLength":443328,
		"target":34962,
		"byteStride":32
	},
	{
		"buffer":6,
		"byteOffset":0,
		"byteLength":4836,
		"target":34963
	},
	{
		"buffer":6,
		"byteOffset":4836,
		"byteLength":27072,
		"target":34962,
		"byteStride":32
	},
	{
		"buffer":7,
		"byteOffset":0,
		"byteLength":40
	},
	{
		"buffer":8,
		"byteOffset":0,
		"byteLength":4836,
		"target":34963
	},
	{
		"buffer":8,
		"byteOffset":4836,
		"byteLength":27072,
		"target":34962,
		"byteStride":32
	},
	{
		"buffer":9,
		"byteOffset":0,
		"byteLength":40
	},
	{
		"buffer":10,
		"byteOffset":0,
		"byteLength":4836,
		"target":34963
	},
	{
		"buffer":10,
		"byteOffset":4836,
		"byteLength":27072,
		"target":34962,
		"byteStride":32
	},
	{
		"buffer":11,
		"byteOffset":0,
		"byteLength":40
	},
	{
		"buffer":12,
		"byteOffset":0,
		"byteLength":4836,
		"target":34963
	},
	{
		"buffer":12,
		"byteOffset":4836,
		"byteLength":27072,
		"target":34962,
		"byteStride":32
	},
	{
		"buffer":13,
		"byteOffset":0,
		"byteLength":40
	}],
	"buffers":[{
		"uri":"data:application/octet-stream;base64,",
		"byteLength":40
	},
	{
		"uri":"data:application/octet-stream;base64,",
		"byteLength":5040
	},
	{
		"uri":"data:application/octet-stream;base64,",
		"byteLength":40
	},
	{
		"uri":"data:application/octet-stream;base64,",
		"byteLength":9020
	},
	{
		"uri":"data:application/octet-stream;base64,",
		"byteLength":353968
	},
	{
		"uri":"data:application/octet-stream;base64,",
		"byteLength":521132
	},
	{
		"uri":"data:application/octet-stream;base64,",
		"byteLength":31908
	},
	{
		"uri":"data:application/octet-stream;base64,",
		"byteLength":40
	},
	{
		"uri":"data:application/octet-stream;base64,",
		"byteLength":31908
	},
	{
		"uri":"data:application/octet-stream;base64,",
		"byteLength":40
	},
	{
		"uri":"data:application/octet-stream;base64,",
		"byteLength":31908
	},
	{
		"uri":"data:application/octet-stream;base64,",
		"byteLength":40
	},
	{
		"uri":"data:application/octet-stream;base64,",
		"byteLength":31908
	},
	{
		"uri":"data:application/octet-stream;base64,",
		"byteLength":40
	}],
	"images":[{
		"uri":"data:image/jpeg;base64,"
	},
	{
		"uri":"data:image/jpeg;base64,"
	},
	{
		"uri":"data:image/jpeg;base64,"
	}],
	"samplers":[{
		"magFilter":9729,
		"minFilter":9729,
		"wrapS":10497,
		"wrapT":10497
	},
	{
		"magFilter":9729,
		"minFilter":9729,
		"wrapS":10497,
		"wrapT":10497
	},
	{
		"magFilter":9729,
		"minFilter":9729,
		"wrapS":10497,
		"wrapT":10497
	}],
	"textures":[{
		"sampler":0,
		"source":0
	},
	{
		"sampler":1,
		"source":1
	},
	{
		"sampler":2,
		"source":2
	}],
	"animations":[{
		"samplers":[{
			"input":0,
			"interpolation":"LINEAR",
			"output":1
		},
		{
			"input":6,
			"interpolation":"LINEAR",
			"output":7
		},
		{
			"input":24,
			"interpolation":"LINEAR",
			"output":25
		},
		{
			"input":30,
			"interpolation":"LINEAR",
			"output":31
		},
		{
			"input":36,
			"interpolation":"LINEAR",
			"output":37
		},
		{
			"input":42,
			"interpolation":"LINEAR",
			"output":43
		}],
		"channels":[{
			"sampler":0,
			"target":{
				"path":"rotation",
				"node":0
			}
		},
		{
			"sampler":1,
			"target":{
				"path":"rotation",
				"node":1
			}
		},
		{
			"sampler":2,
			"target":{
				"path":"rotation",
				"node":5
			}
		},
		{
			"sampler":3,
			"target":{
				"path":"rotation",
				"node":6
			}
		},
		{
			"sampler":4,
			"target":{
				"path":"rotation",
				"node":7
			}
		},
		{
			"sampler":5,
			"target":{
				"path":"rotation",
				"node":8
			}
		}]
	}]
}